<?xml version="1.0" encoding="utf-8"?>
<!-- Generator: Adobe Illustrator 25.3.1, SVG Export Plug-In . SVG Version: 6.00 Build 0)  -->
<svg version="1.1" id="Layer_1" xmlns="http://www.w3.org/2000/svg" xmlns:xlink="http://www.w3.org/1999/xlink" x="0px" y="0px"
	 viewBox="0 0 712 220" style="enable-background:new 0 0 712 220;" xml:space="preserve">
<style type="text/css">
	.st0{fill-rule:evenodd;clip-rule:evenodd;fill:#1F2122;}
	.st1{fill-rule:evenodd;clip-rule:evenodd;fill:#E04346;}
</style>
<g>
	<path class="st0" d="M183.2,72.5c-3.8,4.3-6.3,9.3-6.3,16.1c0,7.4,2.5,13,6.3,17.3V72.5z M182.6,127.3L169,140.9
		c4.5,4.5,9.1,7.8,13.6,10.4V127.3z M182.6,151.3v-24l0.6-0.6l0.6,0.6c6.9,6.9,12.6,11.4,22.1,11.4c0.6,0,0.6,0,1.3,0l-6.9,17.7
		C193.3,155.7,187.6,153.8,182.6,151.3z M226.7,87.6c-5-4.4-11.4-7.6-18.3-7.6c-4.4,0-10.1,2.5-10.1,7.6c0,5.7,6.3,7.6,11.4,9.5l0,0
		l0,0c1.3,0.6,1.3,0.6,2.5,1.3c3.2,1.3,5.7,1.9,8.8,3.2l-7.6,19.6c-3.2-1.9-6.9-3.8-10.7-4.4h-0.6c-6.9-2.5-13.9-5.7-18.9-10.7V72.5
		c6.3-6.3,15.1-9.5,24.6-9.5c10.1,0,18.3,2.5,25.9,6.9L226.7,87.6z M58.3,155.1h26.5c25.9,0,51.7-12.6,51.7-46S110,63,85.4,63H57.7
		L58.3,155.1L58.3,155.1z M79.7,80.7h4.4c18.9,0,30.3,10.1,30.3,29.6c0,20.2-13.9,27.8-33.4,27.8h-1.3
		C79.7,138.1,79.7,80.7,79.7,80.7z M165.5,155.1V63h-20.8v92.1H165.5z"/>
	<path class="st1" d="M244.4,65.5c8.8,3.8,16.4,10.7,16.4,23.3c0,13.2-8.8,23.3-24,25.9c10.1,13.9,24.6,33.4,29.6,41h-12.6l-29-40.4
		h-0.6l3.8-8.8c13.2-0.6,21.4-5,21.4-17c0-6.9-3.8-12-9.5-15.1L244.4,65.5z M345.9,63h-10.1v52.3c0,21.4-10.1,32.2-25.2,32.2
		s-25.2-10.1-25.2-32.2V63h-10.1v49.2c0,29,10.1,44.8,35.3,44.8c24.6,0,35.3-15.8,35.3-44.8L345.9,63L345.9,63z M367.4,155.1V63
		h26.5c14.5,0,31.5,6.9,31.5,26.5c0,20.2-17,27.1-31.5,27.1h-17v37.8h-9.5V155.1z M392.6,71.8h-15.8v36H390
		c13.9,0,24.6-4.4,24.6-18.3C415.3,78.8,405.8,71.8,392.6,71.8z M485.3,71.8V63h-57.4v8.8h24v83.3H462V71.8H485.3z M506.7,63v92.1
		h-10.1V63H506.7z M591.3,63h-10.1l-29.6,76.9l0,0L525.7,63h-11.4l32.2,92.1h9.5L591.3,63z M654.3,146.3v8.8h-53.6V63h53.6v8.8
		h-43.5v30.9h43.5v8.8h-43.5v34.1h43.5V146.3z"/>
</g>
</svg>
